# Blender 4.0.2
# www.blender.org
mtllib piramide_de_ryei.mtl
o Cube
v -1.000000 -1.000000 1.000000
v -1.000000 -1.000000 -1.000000
v 1.000000 -1.000000 1.000000
v 1.000000 -1.000000 -1.000000
vn -0.0000 -1.0000 -0.0000
vt 0.375000 0.500000
vt 0.125000 0.750000
vt 0.125000 0.500000
vt 0.375000 0.750000
s 0
usemtl Material.006
f 4/1/1 1/2/1 2/3/1
f 4/1/1 3/4/1 1/2/1
o Cube.001
v 0.000000 1.000000 0.000000
v 1.000000 -1.000000 1.000000
v 1.000000 -1.000000 -1.000000
vn 0.8944 0.4472 -0.0000
vt 0.375000 0.500000
vt 0.625000 0.750000
vt 0.375000 0.750000
s 0
usemtl Material.003
f 7/5/2 5/6/2 6/7/2
o Cube.002
v 0.000000 1.000000 0.000000
v -1.000000 -1.000000 -1.000000
v 1.000000 -1.000000 -1.000000
vn -0.0000 0.4472 -0.8944
vt 0.375000 0.250000
vt 0.625000 0.500000
vt 0.375000 0.500000
s 0
usemtl Material.002
f 9/8/3 8/9/3 10/10/3
o Cube.003
v -1.000000 -1.000000 1.000000
v 0.000000 1.000000 0.000000
v -1.000000 -1.000000 -1.000000
vn -0.8944 0.4472 -0.0000
vt 0.375000 0.000000
vt 0.625000 0.250000
vt 0.375000 0.250000
s 0
usemtl Material.005
f 11/11/4 12/12/4 13/13/4
o Cube.004
v -1.000000 -1.000000 1.000000
v 0.000000 1.000000 0.000000
v 1.000000 -1.000000 1.000000
vn -0.0000 0.4472 0.8944
vt 0.375000 0.750000
vt 0.625000 1.000000
vt 0.375000 1.000000
s 0
usemtl Material.004
f 16/14/5 15/15/5 14/16/5
